PathFileType	4	(X/Y/Z)	marker_full_rot.trc																																																				
DataRate	CameraRate	NumFrames	NumMarkers	Units	OrigDataRate	OrigDataStartFrame	OrigNumFrames																																																
512	512	9	18	m	512	1	124																																																
Frame#	Time	XIPH			STER			CLAV_SC			CLAV_AC			SCAP_CP			SCAP_AA			SCAP_TS			SCAP_IA			DELT			ARMl			EPICl			EPICm			LARM_ant			LARM_post			LARM_elb			LARM_dist			STYLrad			STYLulna		
		X1	Y1	Z1	X2	Y2	Z2	X3	Y3	Z3	X4	Y4	Z4	X5	Y5	Z5	X6	Y6	Z6	X7	Y7	Z7	X8	Y8	Z8	X9	Y9	Z9	X10	Y10	Z10	X11	Y11	Z11	X12	Y12	Z12	X13	Y13	Z13	X14	Y14	Z14	X15	Y15	Z15	X16	Y16	Z16	X17	Y17	Z17	X18	Y18	Z18
																																																							
1	0	0.77406005859375	-0.369455841064453	0.543543579101562	0.77069921875	-0.338798461914062	0.691394836425781	0.751385925292969	-0.325136993408203	0.710363586425781	0.570628295898438	-0.257476867675781	0.690921630859375	0.630711669921875	-0.295936248779297	0.672898498535156	0.556079345703125	-0.223291351318359	0.681708740234375	0.691026306152344	-0.144929107666016	0.713006774902344	0.675835571289062	-0.118394271850586	0.576671020507813	0.524028198242188	-0.204134323120117	0.481468048095703	0.5206533203125	-0.197523681640625	0.443414733886719	0.528768615722656	-0.163345886230469	0.361410949707031	0.588865234375	-0.173579879760742	0.347725250244141	0.530273498535156	-0.22670085144043	0.292596771240234	0.501064575195313	-0.159591705322266	0.284361267089844	0.545573852539063	-0.152710800170898	0.295964904785156	0.455998962402344	-0.203683135986328	0.222377532958984	0.417120391845703	-0.201812484741211	0.114616683959961	0.462692077636719	-0.188083023071289	0.103771057128906
2	0.001951219512195	0.77409765625	-0.369714141845703	0.543504089355469	0.770808898925781	-0.339102935791016	0.691351257324219	0.751492431640625	-0.325497406005859	0.710340209960938	0.570819458007813	-0.257592926025391	0.690761169433594	0.630840087890625	-0.296144500732422	0.672818542480469	0.556454833984375	-0.223444534301758	0.681819702148438	0.691117980957031	-0.145548858642578	0.7129765625	0.675944946289062	-0.118779724121094	0.576529541015625	0.524271545410156	-0.204228439331055	0.481386993408203	0.520929260253906	-0.197579559326172	0.443337677001953	0.528768615722656	-0.163345886230469	0.361410949707031	0.589241149902344	-0.173771347045898	0.347658905029297	0.530563171386719	-0.226800216674805	0.292498291015625	0.501456298828125	-0.159775787353516	0.284251678466797	0.545999816894531	-0.15286555480957	0.295901916503906	0.456387664794922	-0.203649627685547	0.22223225402832	0.417579193115234	-0.201645858764648	0.114426223754883	0.463275054931641	-0.187920715332031	0.103742523193359
3	0.00390243902439	0.774179077148437	-0.369784515380859	0.543452331542969	0.770906372070312	-0.339285980224609	0.691272033691406	0.751597106933594	-0.325541534423828	0.710240661621094	0.570887817382813	-0.257832397460937	0.690826721191406	0.630959594726563	-0.296308990478516	0.672785400390625	0.556401306152344	-0.223561645507812	0.681756103515625	0.691303466796875	-0.145359069824219	0.7130751953125	0.676174377441406	-0.118671203613281	0.576867614746094	0.524507934570313	-0.204284027099609	0.481323333740234	0.521171813964844	-0.197664154052734	0.443286468505859	0.528768615722656	-0.163345886230469	0.361410949707031	0.589660339355469	-0.173884536743164	0.347674224853516	0.530879150390625	-0.226876739501953	0.292427764892578	0.501836273193359	-0.159856689453125	0.284181427001953	0.546362915039063	-0.152998733520508	0.295834167480469	0.456918762207031	-0.203316116333008	0.222229019165039	0.418029205322266	-0.201537719726563	0.11432039642334	0.463714569091797	-0.188159561157227	0.103541870117188
4	0.005853658536585	0.774226440429688	-0.369960510253906	0.543418212890625	0.771000122070312	-0.339525146484375	0.691188049316406	0.751683837890625	-0.325908996582031	0.710248657226563	0.571099975585937	-0.257827880859375	0.690718933105469	0.631060180664063	-0.296431243896484	0.672789367675781	0.556543701171875	-0.223660873413086	0.681756103515625	0.691509704589844	-0.145462707519531	0.713073059082031	0.676437194824219	-0.119041305541992	0.57657080078125	0.524741577148437	-0.204362762451172	0.481299133300781	0.521438537597656	-0.197785171508789	0.443250366210938	0.528965759277344	-0.163407531738281	0.361423095703125	0.589849853515625	-0.174102523803711	0.347633087158203	0.531140197753906	-0.226976211547852	0.292354248046875	0.502056396484375	-0.159890213012695	0.284188140869141	0.546619567871094	-0.153129257202148	0.295780364990234	0.457269561767578	-0.203312606811523	0.222136871337891	0.418319000244141	-0.201382873535156	0.114386032104492	0.464090942382813	-0.188198745727539	0.103480995178223
5	0.00780487804878	0.7742607421875	-0.370130493164062	0.543394287109375	0.771083923339844	-0.339740234375	0.691173645019531	0.751773315429687	-0.326087310791016	0.710219116210937	0.5712578125	-0.257875518798828	0.690739685058594	0.631157165527344	-0.296477722167969	0.672768615722656	0.556667114257812	-0.223712310791016	0.68178564453125	0.691674377441406	-0.146022994995117	0.713018920898437	0.676657836914063	-0.119047050476074	0.576793579101562	0.524982666015625	-0.204473541259766	0.481270690917969	0.521718322753906	-0.197893646240234	0.443232391357422	0.529023620605469	-0.163582885742188	0.361779144287109	0.59004638671875	-0.174262741088867	0.347574920654297	0.5313251953125	-0.227070755004883	0.292296325683594	0.50229296875	-0.159957107543945	0.284141448974609	0.546956604003906	-0.153014038085938	0.295904205322266	0.457441467285156	-0.203458312988281	0.222057632446289	0.418657775878906	-0.201170761108398	0.114233383178711	0.464394500732422	-0.188065872192383	0.103442901611328
6	0.009756097560976	0.774308410644531	-0.370298431396484	0.543364074707031	0.771148559570313	-0.339844360351562	0.691125	0.751910217285156	-0.326316680908203	0.710225219726562	0.571317749023437	-0.257950073242187	0.690809753417969	0.631231994628906	-0.296601470947266	0.6727939453125	0.557153625488281	-0.223800064086914	0.681880310058594	0.691914672851562	-0.14620556640625	0.71304296875	0.676857849121094	-0.119151206970215	0.576821044921875	0.525225830078125	-0.204538421630859	0.481268341064453	0.52199169921875	-0.197989974975586	0.443214508056641	0.529257446289062	-0.163824172973633	0.361765014648437	0.590340759277344	-0.174341400146484	0.347642944335937	0.531586364746094	-0.227109390258789	0.292255340576172	0.502639007568359	-0.159986297607422	0.284140441894531	0.547277770996094	-0.153103698730469	0.295901336669922	0.457709289550781	-0.203412612915039	0.222011932373047	0.418970550537109	-0.20102702331543	0.114162078857422	0.464738922119141	-0.188172180175781	0.103350372314453
7	0.011707317073171	0.774287414550781	-0.370557403564453	0.543333068847656	0.771177856445313	-0.340025848388672	0.691159790039063	0.751997802734375	-0.326478637695312	0.710232666015625	0.571424255371094	-0.257974517822266	0.690883911132813	0.631290100097656	-0.296708770751953	0.672846618652344	0.557308715820312	-0.223796600341797	0.681977966308594	0.692123596191406	-0.146315155029297	0.713050659179687	0.677031311035156	-0.119060234069824	0.576953552246094	0.525415283203125	-0.204597610473633	0.481287200927734	0.522183227539063	-0.198055725097656	0.443229370117188	0.529469604492187	-0.163781478881836	0.361771606445313	0.590702392578125	-0.174362716674805	0.347738067626953	0.531786499023438	-0.227143280029297	0.292264892578125	0.503043121337891	-0.159961685180664	0.284176177978516	0.547605651855469	-0.153294158935547	0.295838470458984	0.458097351074219	-0.203069473266602	0.222078247070312	0.419142425537109	-0.200870223999023	0.114142471313477	0.465087219238281	-0.188057113647461	0.103350135803223
8	0.013658536585366	0.774369384765625	-0.370663848876953	0.543372924804687	0.771228820800781	-0.340189392089844	0.691166198730469	0.752042846679688	-0.326625640869141	0.710217712402344	0.57155908203125	-0.257946868896484	0.690890502929688	0.631345275878906	-0.296798858642578	0.672889221191406	0.557323303222656	-0.22375700378418	0.682027038574219	0.692327575683594	-0.146412185668945	0.713092407226563	0.677226867675781	-0.119510162353516	0.576658569335937	0.525584838867188	-0.204610595703125	0.481331756591797	0.522337646484375	-0.198055465698242	0.443271575927734	0.530044677734375	-0.163688507080078	0.361464294433594	0.590927062988281	-0.174444473266602	0.347785339355469	0.531922302246094	-0.227145278930664	0.292314117431641	0.503305114746094	-0.159849624633789	0.284198364257813	0.547865966796875	-0.153307159423828	0.295858947753906	0.458288940429688	-0.202956253051758	0.222088272094727	0.419455993652344	-0.200658996582031	0.114222259521484	0.465430511474609	-0.187897613525391	0.103395133972168
9	0.015609756097561	0.774381408691406	-0.370756317138672	0.5433447265625	0.771281372070313	-0.340379852294922	0.691149291992188	0.752101989746094	-0.326805908203125	0.710223571777344	0.571666015625	-0.257939544677734	0.690912475585937	0.631412658691406	-0.296924713134766	0.672963989257813	0.557250122070312	-0.223773544311523	0.681856628417969	0.692527526855469	-0.146519500732422	0.713109558105469	0.677369750976563	-0.11924543762207	0.576974670410156	0.525717651367188	-0.204558959960938	0.48140673828125	0.522453247070312	-0.197998519897461	0.443315093994141	0.530263488769531	-0.163610046386719	0.361552825927734	0.591115417480469	-0.174445236206055	0.347841735839844	0.532037414550781	-0.227087768554687	0.292400634765625	0.503469787597656	-0.159726654052734	0.284239868164062	0.54805908203125	-0.153299407958984	0.295926147460937	0.458312866210938	-0.203035522460937	0.222075073242187	0.419819641113281	-0.200397888183594	0.114257736206055	0.465706604003906	-0.187810317993164	0.103468162536621
